<svg id="Ebene_1" data-name="Ebene 1" xmlns="http://www.w3.org/2000/svg" viewBox="0 0 1073 732"><defs><style>.cls-1{fill:#005664;}</style></defs><path class="cls-1" d="M322.19,356.07c20.55-9.55,34.5-26.8,34.5-52.48,0-46.61-38.17-59.46-80.75-59.46H184.37c5.68,39.29,8.27,81.16,8.27,124.24,0,41.54-2.32,82.19-8.11,119.82h87.74c62.39,0,96.53-26.79,96.53-74.87C368.8,382.49,351.91,363,322.19,356.07Zm-81.11-73h26c20.56,0,36,5.51,36,29,0,17.24-11.38,30.46-38.53,30.46H241.08Zm30.09,164.79H241.08V380.29H273c25.32,0,40,11.38,40,33C313,433.87,302.73,447.82,271.17,447.82Z"/><path class="cls-1" d="M451.73,328.54l-4.4-26.42H405.49l3.67,32.29V488.19h51.38V372.58c.74-19.45,12.48-32.66,30.46-32.66,9.54,0,18.72,2.93,26.43,6.6l8.07-42.93c-7.71-4.41-19.08-7-29.73-7C478.89,296.61,460.54,306.89,451.73,328.54Z"/><path class="cls-1" d="M632.66,455.16c-27.52,0-39.63-18.72-41.84-38.54,39.64-1.46,100.56-11,100.56-66.06,0-35.23-23.85-53.95-60.92-53.95-60.19,0-91.75,49.18-91.75,103.13,0,55.05,25.32,93.95,87.35,93.95,37.43,0,63.12-16.88,67.16-20.55l-14.68-33.76C668.63,446.35,652.48,455.16,632.66,455.16ZM627.52,333c11.38,0,18.72,7,18.72,18.71,0,23.86-37.43,30.1-57.25,30.47C590.09,355.7,602.94,333,627.52,333Z"/><path class="cls-1" d="M881.55,380c0-23.85.8-47.32,2.47-70.2-27.14-9.94-54.08-13.17-66.39-13.17-64.23,0-97.26,42.21-97.26,106.8,0,47.71,16.15,90.65,71.94,90.65,22.75,0,38.53-10.27,48.44-24.95l1.47.36,2.94,18.72H888C883.43,453.86,881.55,417.29,881.55,380Zm-47,49.49c0,13.58-11,27.16-30.46,27.16-26.42,0-33-26.8-33-56.16,0-36,10.28-67.16,40.37-67.16,9.54,0,18,1.84,23.12,4Z"/></svg>